<?xml version="1.0" encoding="UTF-8"?> <svg xmlns="http://www.w3.org/2000/svg" width="168" height="121" viewBox="0 0 168 121" fill="none"> <path fill-rule="evenodd" clip-rule="evenodd" d="M126.669 1.23498C126.483 1.36578 126.246 1.67739 126.143 1.92726C126.004 2.26461 125.967 8.44253 125.998 25.8928L126.041 49.4036L126.497 49.7969C127.167 50.3736 128.112 50.3386 128.736 49.7138L129.211 49.2377V37.5785V25.9193H141.643H154.074L154.118 37.6616L154.162 49.4038L154.618 49.7969C155.287 50.3736 156.233 50.3386 156.856 49.7138L157.331 49.2377V25.623V2.00822L156.757 1.50277C155.974 0.813588 155.355 0.827595 154.633 1.55099L154.081 2.10481V12.6954C154.081 19.6029 154.024 23.3048 153.918 23.3403C153.829 23.3701 148.235 23.3753 141.487 23.3518L129.218 23.309L129.174 12.5462L129.13 1.78327L128.674 1.39022C128.146 0.935428 127.2 0.862127 126.669 1.23498ZM86.8516 1.71388L86.2989 2.2677V25.6712V49.0748L86.774 49.5509C87.3163 50.0943 88.2551 50.2005 88.8466 49.7853C89.1555 49.5685 90.1374 48.0964 92.9548 43.6272C93.4511 42.8398 94.1499 41.7362 94.5075 41.1751C94.8651 40.6138 95.56 39.5097 96.0517 38.7215C96.5434 37.9331 97.3845 36.6018 97.9209 35.7631C98.4573 34.9242 99.2619 33.6465 99.7089 32.9236C100.156 32.2007 100.961 30.9236 101.497 30.0854C102.033 29.2473 102.801 28.038 103.204 27.3982C104.124 25.9341 105.019 24.5209 106.955 21.4727C107.797 20.1472 108.56 18.9426 108.649 18.796C108.738 18.6495 109.208 17.9017 109.692 17.1342C110.177 16.3666 111.155 14.7491 111.865 13.5397C112.576 12.3302 113.332 11.0673 113.545 10.7333C113.757 10.3993 113.932 10.0843 113.932 10.0332C113.932 9.98217 114.173 9.55914 114.468 9.09312C114.763 8.62709 115.101 8.00762 115.219 7.71637C115.337 7.42512 115.481 7.18698 115.538 7.18698C115.596 7.18698 115.642 16.7449 115.641 28.4267C115.639 48.749 115.651 49.6805 115.935 49.9948C116.098 50.1752 116.439 50.4096 116.695 50.5155C117.253 50.7473 117.879 50.5005 118.346 49.8641C118.633 49.4732 118.645 48.5146 118.648 25.9534C118.649 9.94829 118.596 2.3485 118.48 2.13234C118.294 1.78376 117.51 1.32294 117.103 1.32294C116.961 1.32294 116.559 1.46905 116.209 1.64774C115.607 1.95544 115.181 2.54364 113.363 5.57567C113.273 5.72472 112.887 6.34989 112.503 6.9648C112.12 7.57971 111.424 8.70593 110.956 9.46744C110.489 10.2289 109.915 11.1452 109.682 11.5036C109.45 11.8619 108.363 13.6211 107.267 15.4129C106.172 17.2047 105.011 19.0874 104.687 19.5964C104.363 20.1056 103.834 20.9486 103.512 21.4697C101.406 24.8749 100.59 26.1969 99.6607 27.7111C99.0831 28.6518 98.4305 29.6915 98.2104 30.0215C97.9903 30.3517 97.6888 30.8311 97.5406 31.0872C96.8831 32.2215 96.1079 33.4829 94.8103 35.5298C92.8734 38.5856 90.6481 42.2884 90.1363 43.3078C89.9001 43.7782 89.6852 44.163 89.6587 44.163C89.6322 44.163 89.643 34.832 89.6828 23.4276C89.7624 0.489273 89.8257 1.96848 88.7425 1.40716C87.9835 1.01394 87.4663 1.09783 86.8516 1.71388ZM76.2645 2.5039C75.9803 2.70555 74.5636 4.26311 73.1159 5.96531C70.7806 8.71114 70.0903 9.5093 68.6775 11.0963C68.478 11.3203 67.0123 13.0429 65.4202 14.9242C63.8281 16.8056 62.0683 18.858 61.5095 19.4852C60.9508 20.1123 59.0767 22.2782 57.3449 24.2984C55.613 26.3186 52.4772 29.9662 50.3763 32.4041L46.5564 36.837L45.3373 36.7129C43.7766 36.5537 35.606 36.5583 34.4996 36.7189L33.6584 36.8409L30.0296 32.6579C23.9299 25.6266 20.8833 22.1134 20.4628 21.6264C20.242 21.3706 19.9151 21.0053 19.7363 20.8145C19.5575 20.6239 18.3872 19.2851 17.1356 17.8397C6.73754 5.83109 4.23937 2.98866 3.83089 2.70197C3.44078 2.42815 2.47803 2.38922 1.86604 2.62231C1.34882 2.81941 0.881336 3.74674 1.01999 4.30041C1.1011 4.62391 5.076 9.47884 5.51731 9.79322C5.58005 9.83801 7.0862 11.5646 8.86413 13.6303C10.6421 15.6957 14.0007 19.5806 16.3279 22.2634C18.6551 24.946 22.273 29.1201 24.3678 31.539C26.4625 33.9579 28.4352 36.2184 28.7515 36.5622C29.4096 37.2776 29.6438 37.642 29.4566 37.6594C28.8817 37.713 25.9365 38.5562 24.8895 38.967C24.6842 39.0474 24.4173 39.1134 24.2966 39.1134C24.1758 39.1134 22.4419 37.2284 20.4437 34.9245C18.4454 32.6206 16.5911 30.5035 16.3229 30.2199C15.6686 29.5281 15.5509 29.3934 12.5341 25.8828C11.0926 24.2052 8.6946 21.4565 7.20535 19.7745C5.7161 18.0923 4.32065 16.5114 4.1043 16.2613C3.27434 15.3018 2.12855 15.2922 1.29973 16.2381L0.799739 16.8089L0.759103 41.6846C0.702537 76.3248 0.64906 72.6638 1.25032 75.2749C2.18821 79.348 3.64072 82.6286 6.01925 86.0467C7.47339 88.1363 7.4295 88.0849 9.90231 90.5806C12.9146 93.6204 15.449 95.4495 19.6551 97.6187C23.4565 99.5794 28.4784 101.165 33.0745 101.856C36.3758 102.353 42.9559 102.389 46.3939 101.929C48.8067 101.606 53.1182 100.559 55.4152 99.7374C66.9972 95.595 75.6377 86.9388 78.4001 76.711C78.6344 75.8433 78.9037 74.7438 78.9986 74.2676C79.2327 73.0919 79.2052 3.13721 78.9707 2.85378C78.7054 2.53354 77.7532 2.13739 77.2485 2.13739C76.9912 2.13739 76.5484 2.30224 76.2645 2.5039ZM75.5613 31.987C75.554 49.9801 75.5084 55.0895 75.3581 54.851C72.0519 49.6071 68.3542 45.9369 63.1361 42.7203C61.9612 41.9959 58.3399 40.2316 56.6125 39.542C54.9646 38.884 51.5854 37.8116 51.1579 37.8108C51.0068 37.8104 50.8393 37.7393 50.7859 37.6526C50.7324 37.5659 52.0996 35.8654 53.824 33.8736C55.5485 31.8817 57.9081 29.1489 59.0677 27.8005C60.2273 26.4523 62.1657 24.2083 63.3752 22.8138C67.7014 17.8261 70.6657 14.3923 73.0332 11.6257C74.3557 10.0802 75.4677 8.81588 75.5044 8.81588C75.541 8.81588 75.5666 19.2428 75.5613 31.987ZM7.24599 25.3085C8.58797 26.854 10.5527 29.1445 11.612 30.3988C12.6711 31.653 13.689 32.8364 13.8738 33.0286C14.8972 34.093 20.5294 40.7462 20.4455 40.7916C20.413 40.8094 19.8379 41.1099 19.1674 41.4595C13.3691 44.4837 8.68679 48.6547 5.29852 53.8142C4.96027 54.3294 4.65078 54.7508 4.61095 54.7508C4.57097 54.7508 4.5383 47.4941 4.5383 38.6247C4.5383 29.7554 4.5986 22.4986 4.67223 22.4986C4.74587 22.4986 5.90401 23.763 7.24599 25.3085ZM43.2493 39.8669L43.8434 39.9655L42.0666 42.0234C41.0893 43.1553 40.2137 44.0815 40.1206 44.0815C40.0274 44.0815 39.1586 43.1653 38.1899 42.0454C36.778 40.4133 36.4818 39.9873 36.6974 39.8985C37.0342 39.7599 42.4456 39.7338 43.2493 39.8669ZM33.1001 41.6084C33.6501 42.2639 34.3123 43.0153 34.5716 43.278C34.8308 43.5407 36.3874 45.3317 38.0304 47.2579C39.6736 49.1841 41.1056 50.8333 41.2129 50.9229C41.3202 51.0125 42.6394 52.5222 44.1447 54.2778C49.7454 60.8097 55.4631 67.3842 55.7975 67.6766C56.0743 67.9185 56.3334 67.9646 57.1035 67.9087C57.935 67.8485 58.1266 67.7693 58.5278 67.3194C58.7826 67.0334 58.9912 66.6623 58.9912 66.4945C58.9912 66.0731 58.0583 64.7415 56.4126 62.8139C55.6476 61.918 54.6177 60.7085 54.1241 60.1262C53.2044 59.0417 50.7592 56.3022 50.0442 55.5555C48.5574 54.003 42.574 47.166 42.574 47.0196C42.574 46.9596 43.8224 45.457 45.3481 43.6807L48.1219 40.4509L48.9647 40.6568C52.9783 41.637 55.2487 42.4683 58.6454 44.2008C62.0574 45.9411 64.5114 47.7216 67.1185 50.3489C69.4946 52.7434 69.6214 52.8916 70.8816 54.751C72.9549 57.8096 74.052 60.2099 74.9397 63.6283C75.4857 65.7306 75.4896 65.7724 75.4896 69.4109C75.4896 73.0486 75.4855 73.0917 74.9402 75.1935C73.3815 81.1999 69.8933 86.4922 64.7616 90.6356C63.2569 91.8506 61.214 93.2612 60.0477 93.8908C56.6947 95.7005 51.7252 97.6689 49.7261 97.9792C49.4132 98.0277 48.4506 98.2138 47.587 98.3926C44.9027 98.9484 42.6547 99.1052 38.7833 99.0069C36.1302 98.9394 34.706 98.8257 33.3902 98.5762C32.4068 98.3897 31.1999 98.1654 30.7082 98.0776C29.7061 97.8987 26.3204 96.8311 24.6998 96.1832C24.1155 95.9496 22.7597 95.319 21.6869 94.782C12.912 90.3893 6.65903 82.8185 4.90305 74.4605C4.53147 72.692 4.47458 72.0282 4.47003 69.4109C4.46548 66.7394 4.51456 66.1648 4.9037 64.3478C6.67171 56.0919 12.478 48.9259 21.195 44.2421C21.9647 43.8286 22.689 43.5132 22.8046 43.5416C22.92 43.5697 24.1787 44.9543 25.6017 46.6181C27.0246 48.282 29.5419 51.2093 31.1958 53.1232C36.138 58.8423 39.6136 62.8772 41.68 65.2952C42.7528 66.5504 43.7987 67.6602 44.004 67.7612C44.9448 68.2241 46.3254 67.8569 46.7118 67.0412C46.9447 66.5491 46.9478 66.4336 46.738 66.027C46.1416 64.8715 42.4866 60.4621 32.7589 49.1629C28.0735 43.7206 26.6548 41.9754 26.8259 41.8643C26.9496 41.7841 27.3069 41.6454 27.6198 41.5559C28.8687 41.199 31.7748 40.439 31.9322 40.4281C32.0243 40.4217 32.5498 40.9529 33.1001 41.6084ZM163.102 44.6766C162.425 45.1306 162.242 45.3649 162.006 46.0769C161.737 46.8899 161.737 46.9743 162.006 47.7873C162.242 48.4993 162.425 48.7337 163.102 49.1876C163.845 49.6864 163.999 49.7275 164.911 49.6698C165.694 49.6203 166.036 49.5084 166.51 49.1464C167.347 48.5066 167.733 47.8075 167.733 46.9321C167.733 46.0567 167.347 45.3576 166.51 44.7178C166.036 44.3558 165.694 44.2439 164.911 44.1944C163.999 44.1368 163.845 44.1778 163.102 44.6766ZM165.872 46.0289C166.715 46.8727 166.106 48.2352 164.887 48.2352C164.127 48.2352 163.733 48.0145 163.424 47.4159C163.201 46.9819 163.2 46.8826 163.423 46.4516C163.739 45.8381 164.087 45.6401 164.857 45.6339C165.299 45.6305 165.586 45.7419 165.872 46.0289ZM126.4 53.9388L125.957 54.2884L125.999 77.8269L126.041 101.366L126.497 101.759C127.307 102.457 128.533 102.199 129.029 101.226C129.16 100.969 129.211 94.7523 129.211 78.8694V56.8689L142.853 56.9767C158.097 57.0974 157.088 57.167 157.591 55.9598C157.793 55.4765 157.793 55.3283 157.591 54.845C157.463 54.5384 157.155 54.1535 156.905 53.9898C156.476 53.7078 155.664 53.6893 141.648 53.6407L126.844 53.5893L126.4 53.9388ZM87.3372 54.4156C87.1485 54.4954 86.8376 54.7601 86.6464 55.0036L86.2989 55.4464L86.2996 87.0657C86.3 118.381 86.3033 118.69 86.6246 119.219C87.0521 119.921 87.6558 120.151 88.4517 119.913C89.1158 119.715 89.5011 119.165 89.6207 118.244C89.659 117.949 89.6953 112.914 89.7015 107.055L89.7124 96.4018L90.1746 97.037C91.1941 98.4384 93.0932 100.051 94.8326 100.994C97.9005 102.656 102.615 103.471 106.211 102.961C106.837 102.873 107.633 102.759 107.981 102.709C109.469 102.495 112.637 101.097 114.133 99.9948C114.91 99.4221 116.845 97.4236 117.388 96.6321C118.241 95.3902 119.106 93.4263 119.492 91.8581C119.863 90.3503 119.865 90.2815 119.865 78.8585C119.865 67.4742 119.861 67.3618 119.496 65.8773C118.712 62.6901 117.096 60.0293 114.818 58.1772C112.789 56.5276 109.907 55.2437 107.124 54.75C105.97 54.5451 102.389 54.5632 100.96 54.7813C99.4632 55.0097 97.203 55.7199 95.8417 56.3895C93.3882 57.5963 91.517 59.2334 90.1737 61.3479L89.5529 62.3252L89.5514 58.8664L89.5498 55.4076L89.1028 54.9158C88.623 54.3882 87.892 54.181 87.3372 54.4156ZM107.267 57.4768C108.534 57.7796 110.488 58.5885 111.487 59.2238C112.878 60.1081 114.488 61.9535 115.297 63.5896C116.75 66.5266 116.714 66.113 116.66 79.2853L116.613 90.8309L116.016 92.4347C115.311 94.3305 114.585 95.4792 113.224 96.8538C110.758 99.3439 107.48 100.559 103.204 100.567C100.849 100.572 98.8556 100.207 97.1391 99.4555C93.9303 98.0505 91.7341 95.8709 90.4186 92.7856L89.7936 91.3196L89.7476 80.0015C89.7194 73.0432 89.7629 68.3969 89.8609 67.9395C90.4068 65.3888 91.8351 62.7178 93.5514 61.0381C95.7012 58.934 98.872 57.433 101.659 57.1999C103.556 57.041 105.936 57.1587 107.267 57.4768ZM164.011 96.1509C163.28 96.3614 162.412 97.0378 162.102 97.6384C161.518 98.771 161.934 100.338 163.019 101.092C164.533 102.143 166.663 101.626 167.506 100.002C167.802 99.4323 167.798 98.3498 167.499 97.7699C167.157 97.1064 166.211 96.3314 165.504 96.1346C164.795 95.9374 164.751 95.9379 164.011 96.1509ZM165.741 97.8482C166.482 98.3288 166.416 99.5408 165.627 99.9498C164.706 100.427 163.853 100.209 163.429 99.387C163.154 98.8531 163.274 98.332 163.774 97.8971C164.366 97.3816 164.996 97.3659 165.741 97.8482Z" fill="#73593A"></path> </svg> 